<?xml version="1.0" encoding="utf-8"?>
<!-- Generated by IcoMoon.io -->
<!DOCTYPE svg PUBLIC "-//W3C//DTD SVG 1.1//EN" "http://www.w3.org/Graphics/SVG/1.1/DTD/svg11.dtd">
<svg version="1.1" xmlns="http://www.w3.org/2000/svg" xmlns:xlink="http://www.w3.org/1999/xlink" width="8" height="20" viewBox="0 0 8 20">
<g id="icomoon-ignore">
	<line stroke-width="1" x1="" y1="" x2="" y2="" stroke="#449FDB" opacity=""></line>
</g>
	<path d="M0 2.5v15l3.75-2.5 3.75 2.5v-15h-7.5zM6.177 6.343l-1.404 1.014 0.531 1.629c0.054 0.164-0.013 0.216-0.148 0.129l-1.406-1.017-1.406 1.016c-0.134 0.087-0.201 0.035-0.148-0.129l0.532-1.629-1.404-1.013c-0.126-0.1-0.098-0.18 0.076-0.18l1.719-0.002 0.53-1.623c0.055-0.172 0.148-0.172 0.203 0l0.531 1.623 1.718 0.002c0.175 0 0.203 0.080 0.077 0.18z" fill="#ffffff"></path>
</svg>
