<?xml version="1.0" encoding="utf-8"?>
<!-- Generated by IcoMoon.io -->
<!DOCTYPE svg PUBLIC "-//W3C//DTD SVG 1.1//EN" "http://www.w3.org/Graphics/SVG/1.1/DTD/svg11.dtd">
<svg version="1.1" xmlns="http://www.w3.org/2000/svg" xmlns:xlink="http://www.w3.org/1999/xlink" width="14" height="16" viewBox="0 0 14 16">
<g id="icomoon-ignore">
	<line stroke-width="1" x1="" y1="" x2="" y2="" stroke="#449FDB" opacity=""></line>
</g>
	<path d="M7 0c-3.865 0-7 3.135-7 7 0 1.916 0.773 3.649 2.022 4.914l0.011 4.086 3.318-2.217c0.532 0.131 1.078 0.217 1.649 0.217 3.865 0 7-3.135 7-7s-3.135-7-7-7zM7 12c-0.354 0-0.737-0.053-1.17-0.158l-0.851-0.211-0.959 0.635 0.006-1.168-0.58-0.588c-0.932-0.945-1.446-2.191-1.446-3.51 0-2.758 2.242-5 5-5s5 2.242 5 5c0 2.758-2.242 5-5 5z" fill="#000000"></path>
</svg>
