<?xml version="1.0" encoding="utf-8"?>
<!-- Generated by IcoMoon.io -->
<!DOCTYPE svg PUBLIC "-//W3C//DTD SVG 1.1//EN" "http://www.w3.org/Graphics/SVG/1.1/DTD/svg11.dtd">
<svg version="1.1" xmlns="http://www.w3.org/2000/svg" xmlns:xlink="http://www.w3.org/1999/xlink" width="18" height="20" viewBox="0 0 18 20">
<g id="icomoon-ignore">
	<line stroke-width="1" x1="" y1="" x2="" y2="" stroke="#449FDB" opacity=""></line>
</g>
	<path d="M16.25 1.25h-15c-0.625 0-1.25 0.625-1.25 1.25v15c0 0.625 0.625 1.25 1.25 1.25h15c0.625 0 1.25-0.625 1.25-1.25v-15c0-0.625-0.625-1.25-1.25-1.25zM15 15.625c0 0.313-0.332 0.625-0.625 0.625h-11.25c-0.352 0-0.625-0.234-0.625-0.625v-11.25c0-0.313 0.313-0.625 0.625-0.625h11.25c0.293 0 0.625 0.313 0.625 0.625v11.25zM5 11.25h7.5v-2.5h-7.5v2.5z" fill="#ffffff"></path>
</svg>
