<?xml version="1.0" encoding="utf-8"?>
<!-- Generated by IcoMoon.io -->
<!DOCTYPE svg PUBLIC "-//W3C//DTD SVG 1.1//EN" "http://www.w3.org/Graphics/SVG/1.1/DTD/svg11.dtd">
<svg version="1.1" xmlns="http://www.w3.org/2000/svg" xmlns:xlink="http://www.w3.org/1999/xlink" width="20" height="20" viewBox="0 0 20 20">
<g id="icomoon-ignore">
	<line stroke-width="1" x1="" y1="" x2="" y2="" stroke="#449FDB" opacity=""></line>
</g>
	<path d="M18.547 9.455l-7.978-8.009c-0.214-0.215-0.504-0.335-0.807-0.335h-7.503c-0.629 0-1.14 0.51-1.14 1.141v7.503c0 0.303 0.12 0.593 0.334 0.807l7.994 7.994c0.222 0.222 0.514 0.334 0.805 0.334s0.583-0.111 0.805-0.334l7.487-7.487c0.445-0.445 0.445-1.167 0.002-1.613zM15.821 10.652l-5.175 5.175c-0.217 0.217-0.568 0.217-0.784 0l-6.521-6.521v-5.417c0-0.306 0.248-0.555 0.554-0.555h5.419l6.507 6.533c0.217 0.217 0.216 0.568-0.001 0.785z" fill="#ffffff"></path>
	<path d="M8.891 7.222c0 0.92-0.746 1.667-1.665 1.667s-1.665-0.746-1.665-1.667c0-0.92 0.745-1.667 1.665-1.667s1.665 0.746 1.665 1.667z" fill="#ffffff"></path>
</svg>
