<?xml version="1.0" encoding="utf-8"?>
<!-- Generated by IcoMoon.io -->
<!DOCTYPE svg PUBLIC "-//W3C//DTD SVG 1.1//EN" "http://www.w3.org/Graphics/SVG/1.1/DTD/svg11.dtd">

<svg version="1.1" xmlns="http://www.w3.org/2000/svg" xmlns:xlink="http://www.w3.org/1999/xlink" width="16" height="240" viewBox="0 0 16 240">
<defs>
<g id="icon-read-more">
	<path class="path1" d="M4.096 0c-1.777 3.219-2.076 8.13 4.904 7.966v-3.966l6 6-6 6v-3.881c-8.359 0.218-9.29-7.378-4.904-12.119z"></path>
</g>
<g id="icon-comment">
	<path class="path1" d="M8 3c-0.858 0-1.687 0.135-2.464 0.402-0.73 0.251-1.38 0.605-1.932 1.054-1.035 0.841-1.604 1.922-1.604 3.044 0 0.63 0.175 1.24 0.52 1.815 0.356 0.592 0.89 1.134 1.547 1.566 0.474 0.312 0.793 0.812 0.878 1.373 0.028 0.187 0.046 0.376 0.053 0.564 0.117-0.097 0.23-0.201 0.342-0.312 0.377-0.377 0.887-0.586 1.414-0.586 0.084 0 0.168 0.005 0.252 0.016 0.328 0.042 0.662 0.063 0.995 0.063 0.858 0 1.687-0.135 2.464-0.402 0.73-0.251 1.38-0.605 1.932-1.054 1.035-0.841 1.604-1.922 1.604-3.044s-0.57-2.203-1.604-3.044c-0.552-0.448-1.202-0.803-1.932-1.054-0.777-0.267-1.606-0.402-2.464-0.402zM8 1v0c4.418 0 8 2.91 8 6.5s-3.582 6.5-8 6.5c-0.424 0-0.841-0.027-1.247-0.079-1.718 1.718-3.77 2.027-5.753 2.072v-0.421c1.071-0.525 2-1.48 2-2.572 0-0.152-0.012-0.302-0.034-0.448-1.809-1.192-2.966-3.012-2.966-5.052 0-3.59 3.582-6.5 8-6.5z"></path>
</g>
<g id="icon-mail">
	<path class="path1" d="M15 2h-14c-0.552 0-1 0.447-1 1v10c0 0.553 0.448 1 1 1h14c0.552 0 1-0.447 1-1v-10c0-0.553-0.448-1-1-1zM13 4l-5 4-5-4h10zM14 12h-12v-7l6 5 6-5v7z"></path>
</g>
<g id="icon-clock">
	<path class="path1" d="M8 0.64c-4.065 0-7.36 3.296-7.36 7.36s3.295 7.36 7.36 7.36 7.36-3.295 7.36-7.36c0-4.065-3.295-7.36-7.36-7.36zM8 13.76c-3.182 0-5.76-2.579-5.76-5.76s2.578-5.76 5.76-5.76 5.76 2.579 5.76 5.76-2.578 5.76-5.76 5.76zM8.56 3.84h-1.12v4.392l2.724 2.724 0.792-0.792-2.396-2.396z"></path>
</g>
<g id="icon-rss">
	<path class="path1" d="M1.602 2.239v1.894c5.669 0 10.264 4.596 10.264 10.265h1.895c0-6.715-5.444-12.159-12.159-12.159zM1.602 6.029v1.895c3.576 0 6.475 2.898 6.475 6.474h1.894c0-4.622-3.746-8.37-8.369-8.37zM3.418 10.766c-1.002 0-1.816 0.814-1.816 1.817s0.814 1.816 1.816 1.816c1.003 0 1.817-0.813 1.817-1.816s-0.814-1.817-1.817-1.817z"></path>
</g>
<g id="icon-github">
	<path class="path1" d="M10.544 9.048c-0.574 0-1.040 0.645-1.040 1.439s0.466 1.44 1.040 1.44 1.040-0.645 1.040-1.44c-0.001-0.795-0.466-1.439-1.040-1.439zM14.165 5.301c0.118-0.292 0.124-1.952-0.507-3.541 0 0-1.45 0.158-3.642 1.663-0.46-0.127-1.238-0.19-2.016-0.19s-1.556 0.064-2.017 0.19c-2.191-1.505-3.64-1.663-3.64-1.663-0.631 1.589-0.626 3.249-0.507 3.541-0.742 0.806-1.196 1.774-1.196 3.097 0 5.749 4.77 5.841 5.974 5.841 0.273 0 0.815 0.001 1.387 0.002 0.572-0.001 1.114-0.002 1.386-0.002 1.205 0 5.974-0.092 5.974-5.841 0-1.322-0.453-2.29-1.195-3.097zM8.022 13.532h-0.044c-3.018 0-5.368-0.36-5.368-3.293 0-0.702 0.249-1.354 0.837-1.895 0.983-0.902 2.645-0.424 4.531-0.424 0.007 0 0.015 0 0.022-0.001s0.015 0.001 0.022 0.001c1.886 0 3.549-0.478 4.531 0.424 0.588 0.541 0.836 1.193 0.836 1.895 0 2.933-2.349 3.293-5.367 3.293zM5.457 9.048c-0.574 0-1.040 0.645-1.040 1.439s0.466 1.44 1.040 1.44 1.040-0.645 1.040-1.44c0-0.795-0.466-1.439-1.040-1.439z"></path>
</g>
<g id="icon-weibo">
	<path class="path1" d="M11.903 8.054c-0.219-0.066-0.37-0.113-0.254-0.406 0.249-0.638 0.274-1.187 0.005-1.58-0.506-0.736-1.89-0.697-3.478-0.019 0-0.001-0.498 0.222-0.371-0.182 0.244-0.798 0.207-1.467-0.173-1.854-0.861-0.877-3.15 0.034-5.115 2.032-1.47 1.497-2.324 3.083-2.324 4.455 0 2.624 3.306 4.379 6.54 4.379 4.24 0 7.060-2.667 7.060-4.658 0-1.203-0.995-1.886-1.89-2.168zM6.742 13.704c-2.581 0.255-4.808-0.917-4.976-2.621s1.789-3.292 4.37-3.549c2.582-0.257 4.809 0.916 4.976 2.619s-1.789 3.294-4.37 3.55zM16.114 5.918c-0.002-2.65-2.15-4.798-4.8-4.798-0.31 0-0.56 0.25-0.56 0.56s0.25 0.559 0.56 0.559c2.032 0 3.68 1.648 3.68 3.681 0 0.31 0.25 0.56 0.56 0.56s0.56-0.25 0.56-0.56c0 0 0-0.002 0-0.002zM13.888 5.836c-0.256-1.25-1.242-2.234-2.49-2.49-0.302-0.062-0.599 0.133-0.661 0.436s0.133 0.598 0.435 0.661c0.813 0.166 1.453 0.806 1.618 1.618 0.062 0.303 0.358 0.498 0.662 0.436s0.498-0.358 0.436-0.661zM5.418 9.202c-1.039 0.209-1.741 1.081-1.566 1.947s1.158 1.399 2.198 1.19c1.039-0.209 1.741-1.081 1.566-1.947s-1.158-1.398-2.198-1.19z"></path>
</g>
</defs>
mail, github, rss, weibo, clock, read-more, comment

<g fill="#FFFFFF">
    <use xlink:href="#icon-mail" transform="translate(0 32)"></use>
    <use xlink:href="#icon-github" transform="translate(0 64)"></use>
    <use xlink:href="#icon-rss" transform="translate(0 96)"></use>
    <use xlink:href="#icon-weibo" transform="translate(0 128)"></use>

</g>
<g fill="#000000">
    <use xlink:href="#icon-clock" transform="translate(0 160)"></use>
    <use xlink:href="#icon-read-more" transform="translate(0 192)"></use>
    <use xlink:href="#icon-comment" transform="translate(0 224)"></use>
</g>

</svg>