<?xml version="1.0" encoding="utf-8"?>
<!DOCTYPE svg PUBLIC "-//W3C//DTD SVG 1.1//EN" "http://www.w3.org/Graphics/SVG/1.1/DTD/svg11.dtd">
<svg version="1.1" xmlns="http://www.w3.org/2000/svg" xmlns:xlink="http://www.w3.org/1999/xlink" x="0px" y="0px"
     viewBox="70 40 160 100" style="enable-background:new 0 0 300 200;" xml:space="preserve">
<g id="Blend_Modes">
    <path style="fill:#DA727E;" d="M138,85c0-10.796,4.625-20.508,11.999-27.272C143.414,51.688,134.638,48,125,48
        c-20.436,0-37,16.564-37,37c0,20.432,16.564,37,37,37c9.638,0,18.414-3.689,24.999-9.729C142.625,105.506,138,95.793,138,85z"/>
    <path style="fill:#3EC3D5;" d="M175,48c-9.64,0-18.416,3.688-25.001,9.728C157.374,64.492,162,74.204,162,85
        c0,10.793-4.626,20.506-12.001,27.271C156.584,118.311,165.36,122,175,122c20.432,0,37-16.568,37-37C212,64.564,195.432,48,175,48z
        "/>
    <path style="fill:#3C3E58;" d="M162,85c0-10.796-4.626-20.508-12.001-27.272C142.625,64.492,138,74.204,138,85
        c0,10.793,4.625,20.506,11.999,27.271C157.374,105.506,162,95.793,162,85z"/>
</g>
</svg>
