<?xml version="1.0" encoding="utf-8"?>
<!DOCTYPE svg PUBLIC "-//W3C//DTD SVG 1.1//EN" "http://www.w3.org/Graphics/SVG/1.1/DTD/svg11.dtd">
<svg version="1.1" xmlns="http://www.w3.org/2000/svg" xmlns:xlink="http://www.w3.org/1999/xlink" x="0px" y="0px"
     viewBox="70 40 160 100" style="enable-background:new 0 0 300 200;" xml:space="preserve">
<g id="Shapes">
    <circle style="fill:#EFC94C;" cx="127" cy="84" r="37"/>
    <rect x="111" y="55" style="fill:#E27A3F;" width="31" height="4"/>
    <rect x="103" y="62" style="fill:#E27A3F;" width="47" height="4"/>
    <rect x="100" y="69" style="fill:#E27A3F;" width="42" height="4"/>
    <rect x="96" y="76" style="fill:#E27A3F;" width="54" height="4"/>
    <rect x="96" y="83" style="fill:#E27A3F;" width="62" height="4"/>
    <rect x="96" y="90" style="fill:#E27A3F;" width="56" height="4"/>
    <rect x="100" y="97" style="fill:#E27A3F;" width="51" height="4"/>
    <rect x="105" y="104" style="fill:#E27A3F;" width="45" height="4"/>
    <rect x="116" y="111" style="fill:#E27A3F;" width="22" height="4"/>
    <rect x="162" y="55" style="fill:#334D5C;" width="48" height="4"/>
    <rect x="166" y="62" style="fill:#334D5C;" width="40" height="4"/>
    <rect x="168" y="69" style="fill:#334D5C;" width="43" height="4"/>
    <rect x="169" y="76" style="fill:#334D5C;" width="36" height="4"/>
    <rect x="169" y="83" style="fill:#334D5C;" width="37" height="4"/>
    <rect x="169" y="90" style="fill:#334D5C;" width="32" height="4"/>
    <rect x="168" y="97" style="fill:#334D5C;" width="37" height="4"/>
    <rect x="165" y="104" style="fill:#334D5C;" width="36" height="4"/>
    <rect x="161" y="111" style="fill:#334D5C;" width="43" height="4"/>
</g>
</svg>
