<svg display="none" width="0" height="0" version="1.1" xmlns="http://www.w3.org/2000/svg" xmlns:xlink="http://www.w3.org/1999/xlink">
<symbol id="icon-comment" viewBox="0 0 16 16" fill="#000000">
    <title>comment</title>
	<path d="M13.333 1.333h-10.667c-0.737 0-1.327 0.597-1.327 1.333l-0.007 12 2.667-2.667h9.333c0.737 0 1.333-0.597 1.333-1.333v-8c0-0.737-0.597-1.333-1.333-1.333zM4 6h8v1.333h-8v-1.333zM9.333 9.333h-5.333v-1.333h5.333v1.333zM12 5.333h-8v-1.333h8v1.333z"></path>
</symbol>
<symbol id="icon-date" viewBox="0 0 16 16" fill="#000000">
    <title>date</title>
    <path d="M12.667 2h-0.667v-1.333h-1.333v1.333h-5.333v-1.333h-1.333v1.333h-0.667c-0.737 0-1.327 0.597-1.327 1.333l-0.007 9.333c0 0.737 0.597 1.333 1.333 1.333h9.333c0.737 0 1.333-0.597 1.333-1.333v-9.333c0-0.737-0.597-1.333-1.333-1.333zM12.667 12.667h-9.333v-7.333h9.333v7.333zM4.667 6.667h3.333v3.333h-3.333z"></path>
</symbol>
<symbol id="icon-mail" viewBox="0 0 16 16" fill="#FFFFFF">
    <title>mail</title>
	<path d="M15 2h-14c-0.552 0-1 0.447-1 1v10c0 0.553 0.448 1 1 1h14c0.552 0 1-0.447 1-1v-10c0-0.553-0.448-1-1-1zM13 4l-5 4-5-4h10zM14 12h-12v-7l6 5 6-5v7z"></path>
</symbol>
<symbol id="icon-rss" viewBox="0 0 16 16" fill="#FFFFFF">
    <title>rss</title>
	<path d="M1.602 2.239v1.894c5.669 0 10.264 4.596 10.264 10.265h1.895c0-6.715-5.444-12.159-12.159-12.159zM1.602 6.029v1.895c3.576 0 6.475 2.898 6.475 6.474h1.894c0-4.622-3.746-8.37-8.369-8.37zM3.418 10.766c-1.002 0-1.816 0.814-1.816 1.817s0.814 1.816 1.816 1.816c1.003 0 1.817-0.813 1.817-1.816s-0.814-1.817-1.817-1.817z"></path>
</symbol>
<symbol id="icon-github" viewBox="0 0 16 16" fill="#FFFFFF">
    <title>github</title>
	<path d="M10.544 9.048c-0.574 0-1.040 0.645-1.040 1.439s0.466 1.44 1.040 1.44 1.040-0.645 1.040-1.44c-0.001-0.795-0.466-1.439-1.040-1.439zM14.165 5.301c0.118-0.292 0.124-1.952-0.507-3.541 0 0-1.45 0.158-3.642 1.663-0.46-0.127-1.238-0.19-2.016-0.19s-1.556 0.064-2.017 0.19c-2.191-1.505-3.64-1.663-3.64-1.663-0.631 1.589-0.626 3.249-0.507 3.541-0.742 0.806-1.196 1.774-1.196 3.097 0 5.749 4.77 5.841 5.974 5.841 0.273 0 0.815 0.001 1.387 0.002 0.572-0.001 1.114-0.002 1.386-0.002 1.205 0 5.974-0.092 5.974-5.841 0-1.322-0.453-2.29-1.195-3.097zM8.022 13.532h-0.044c-3.018 0-5.368-0.36-5.368-3.293 0-0.702 0.249-1.354 0.837-1.895 0.983-0.902 2.645-0.424 4.531-0.424 0.007 0 0.015 0 0.022-0.001s0.015 0.001 0.022 0.001c1.886 0 3.549-0.478 4.531 0.424 0.588 0.541 0.836 1.193 0.836 1.895 0 2.933-2.349 3.293-5.367 3.293zM5.457 9.048c-0.574 0-1.040 0.645-1.040 1.439s0.466 1.44 1.040 1.44 1.040-0.645 1.040-1.44c0-0.795-0.466-1.439-1.040-1.439z"></path>
</symbol>
<symbol id="icon-weibo" viewBox="0 0 16 16" fill="#FFFFFF">
    <title>weibo</title>
	<path d="M11.903 8.054c-0.219-0.066-0.37-0.113-0.254-0.406 0.249-0.638 0.274-1.187 0.005-1.58-0.506-0.736-1.89-0.697-3.478-0.019 0-0.001-0.498 0.222-0.371-0.182 0.244-0.798 0.207-1.467-0.173-1.854-0.861-0.877-3.15 0.034-5.115 2.032-1.47 1.497-2.324 3.083-2.324 4.455 0 2.624 3.306 4.379 6.54 4.379 4.24 0 7.060-2.667 7.060-4.658 0-1.203-0.995-1.886-1.89-2.168zM6.742 13.704c-2.581 0.255-4.808-0.917-4.976-2.621s1.789-3.292 4.37-3.549c2.582-0.257 4.809 0.916 4.976 2.619s-1.789 3.294-4.37 3.55zM16.114 5.918c-0.002-2.65-2.15-4.798-4.8-4.798-0.31 0-0.56 0.25-0.56 0.56s0.25 0.559 0.56 0.559c2.032 0 3.68 1.648 3.68 3.681 0 0.31 0.25 0.56 0.56 0.56s0.56-0.25 0.56-0.56c0 0 0-0.002 0-0.002zM13.888 5.836c-0.256-1.25-1.242-2.234-2.49-2.49-0.302-0.062-0.599 0.133-0.661 0.436s0.133 0.598 0.435 0.661c0.813 0.166 1.453 0.806 1.618 1.618 0.062 0.303 0.358 0.498 0.662 0.436s0.498-0.358 0.436-0.661zM5.418 9.202c-1.039 0.209-1.741 1.081-1.566 1.947s1.158 1.399 2.198 1.19c1.039-0.209 1.741-1.081 1.566-1.947s-1.158-1.398-2.198-1.19z"></path>
</symbol>
<symbol id="icon-menu" fill="#000000" viewBox="0 0 16 16">
    <title>menu</title>
    <path d="M1.333 10.333v1.333h13.333v-1.333h-13.333zM1.333 7v1.333h13.333v-1.333h-13.333zM1.333 3.667v1.333h13.333v-1.333h-13.333z"></path>
</symbol>
<symbol id="icon-close" fill="#000000" viewBox="0 0 16 16">
    <title>close</title>
    <path d="M12.667 4.277l-0.943-0.943-3.723 3.723-3.723-3.723-0.943 0.943 3.723 3.723-3.723 3.723 0.943 0.943 3.723-3.723 3.723 3.723 0.943-0.943-3.723-3.723z"></path>
</symbol>
<symbol id="icon-logo" viewBox="0 0 150 150">
<g>
    <g>
        <circle fill="rgba(255, 255, 255, .8)" cx="75" cy="75" r="75"/>
    </g>
    <g>
        <linearGradient id="SVGID_1_" gradientUnits="userSpaceOnUse" x1="19.0538" y1="56.1878" x2="64.5083" y2="100.1272">
            <stop  offset="0.33" style="stop-color:#263238;stop-opacity:0.16"/>
            <stop  offset="1" style="stop-color:#263238;stop-opacity:0"/>
        </linearGradient>
        <polygon fill="url(#SVGID_1_)" points="78.423,86.052 49.891,114.584 18.055,82.747 46.586,54.216         "/>
    </g>
    <g>
        <linearGradient id="SVGID_2_" gradientUnits="userSpaceOnUse" x1="109.4969" y1="78.8466" x2="143.5399" y2="111.7548">
            <stop  offset="0.33" style="stop-color:#263238;stop-opacity:0.16"/>
            <stop  offset="1" style="stop-color:#263238;stop-opacity:0"/>
        </linearGradient>
        <path fill="url(#SVGID_2_)" d="M128.318,127.734c10.769-10.888,18.225-25.053,20.739-40.869l-14.138-14.138l-30.804,30.804
            L128.318,127.734z"/>
    </g>
    <g>
        <linearGradient id="SVGID_3_" gradientUnits="userSpaceOnUse" x1="62.9166" y1="69.1903" x2="112.9166" y2="118.4328">
            <stop  offset="0.33" style="stop-color:#263238;stop-opacity:0.16"/>
            <stop  offset="1" style="stop-color:#263238;stop-opacity:0"/>
        </linearGradient>
        <polygon fill="url(#SVGID_3_)" points="123.087,71.737 83.283,146.385 55.267,118.368 95.071,43.721       "/>
    </g>
    <polyline fill="none" stroke="tomato" stroke-width="8.5095" stroke-linejoin="bevel" stroke-miterlimit="10" points="
        101.895,56.882 132.026,77.797 101.895,98.714    "/>
    <polyline fill="none" stroke="tomato" stroke-width="8.5095" stroke-linejoin="bevel" stroke-miterlimit="10" points="
        48.889,56.882 18.758,77.797 48.89,98.714    "/>

        <line fill="none" stroke="tomato" stroke-width="8.5095" stroke-linejoin="bevel" stroke-miterlimit="10" x1="90.959" y1="42.136" x2="59.041" y2="119.732"/>
</g>
<g>

        <radialGradient id="SVGID_4_" cx="-22.5632" cy="27.5377" r="134.194" gradientTransform="matrix(1.5152 0 0 1.5152 38.1708 -38.9799)" gradientUnits="userSpaceOnUse">
        <stop  offset="0" style="stop-color:#FFFFFF"/>
        <stop  offset="1" style="stop-color:#FFFFFF;stop-opacity:0"/>
    </radialGradient>
    <circle opacity="0.08" fill="url(#SVGID_4_)" cx="75" cy="75" r="75"/>
</g>
</symbol>
</svg>