<svg width="2560" height="1340" xmlns="http://www.w3.org/2000/svg"><g><path d="M-112,-92L-116,109L19,114Z" fill="#c22132" stroke="#c22132" fill-opacity="1" stroke-opacity="1"/><path d="M-112,-92L19,114L94,-28Z" fill="#c31d2f" stroke="#c31d2f" fill-opacity="1" stroke-opacity="1"/><path d="M-112,-92L94,-28L428,-99Z" fill="#c7222d" stroke="#c7222d" fill-opacity="1" stroke-opacity="1"/><path d="M-112,-92L428,-99L546,-125Z" fill="#cf3933" stroke="#cf3933" fill-opacity="1" stroke-opacity="1"/><path d="M94,-28L19,114L201,68Z" fill="#d24040" stroke="#d24040" fill-opacity="1" stroke-opacity="1"/><path d="M94,-28L201,68L246,-26Z" fill="#d33b3e" stroke="#d33b3e" fill-opacity="1" stroke-opacity="1"/><path d="M94,-28L246,-26L428,-99Z" fill="#d3353a" stroke="#d3353a" fill-opacity="1" stroke-opacity="1"/><path d="M246,-26L201,68L337,63Z" fill="#dd5249" stroke="#dd5249" fill-opacity="1" stroke-opacity="1"/><path d="M246,-26L337,63L428,-99Z" fill="#dd4b45" stroke="#dd4b45" fill-opacity="1" stroke-opacity="1"/><path d="M428,-99L337,63L549,53Z" fill="#e46156" stroke="#e46156" fill-opacity="1" stroke-opacity="1"/><path d="M428,-99L549,53L546,-125Z" fill="#de5554" stroke="#de5554" fill-opacity="1" stroke-opacity="1"/><path d="M546,-125L549,53L693,21Z" fill="#e46b68" stroke="#e46b68" fill-opacity="1" stroke-opacity="1"/><path d="M546,-125L693,21L723,-86Z" fill="#e06568" stroke="#e06568" fill-opacity="1" stroke-opacity="1"/><path d="M546,-125L723,-86L1134,-111Z" fill="#dc706f" stroke="#dc706f" fill-opacity="1" stroke-opacity="1"/><path d="M546,-125L1134,-111L1816,-120Z" fill="#d57a80" stroke="#d57a80" fill-opacity="1" stroke-opacity="1"/><path d="M723,-86L693,21L777,-16Z" fill="#e67679" stroke="#e67679" fill-opacity="1" stroke-opacity="1"/><path d="M723,-86L777,-16L1009,-18Z" fill="#e3767d" stroke="#e3767d" fill-opacity="1" stroke-opacity="1"/><path d="M723,-86L1009,-18L1134,-111Z" fill="#df767f" stroke="#df767f" fill-opacity="1" stroke-opacity="1"/><path d="M777,-16L693,21L806,73Z" fill="#ec8984" stroke="#ec8984" fill-opacity="1" stroke-opacity="1"/><path d="M777,-16L806,73L986,61Z" fill="#ec928c" stroke="#ec928c" fill-opacity="1" stroke-opacity="1"/><path d="M777,-16L986,61L1009,-18Z" fill="#e88a8b" stroke="#e88a8b" fill-opacity="1" stroke-opacity="1"/><path d="M1009,-18L986,61L1152,135Z" fill="#ed9f9c" stroke="#ed9f9c" fill-opacity="1" stroke-opacity="1"/><path d="M1009,-18L1152,135L1134,-111Z" fill="#e68e96" stroke="#e68e96" fill-opacity="1" stroke-opacity="1"/><path d="M1134,-111L1152,135L1233,100Z" fill="#e6999c" stroke="#e6999c" fill-opacity="1" stroke-opacity="1"/><path d="M1134,-111L1233,100L1335,-108Z" fill="#da7c8d" stroke="#da7c8d" fill-opacity="1" stroke-opacity="1"/><path d="M1134,-111L1335,-108L1816,-120Z" fill="#c8747f" stroke="#c8747f" fill-opacity="1" stroke-opacity="1"/><path d="M1335,-108L1233,100L1445,62Z" fill="#db8d96" stroke="#db8d96" fill-opacity="1" stroke-opacity="1"/><path d="M1335,-108L1445,62L1481,-68Z" fill="#d0788c" stroke="#d0788c" fill-opacity="1" stroke-opacity="1"/><path d="M1335,-108L1481,-68L1816,-120Z" fill="#bc6c7d" stroke="#bc6c7d" fill-opacity="1" stroke-opacity="1"/><path d="M1481,-68L1445,62L1590,-56Z" fill="#ca7a8c" stroke="#ca7a8c" fill-opacity="1" stroke-opacity="1"/><path d="M1481,-68L1590,-56L1816,-120Z" fill="#b2657c" stroke="#b2657c" fill-opacity="1" stroke-opacity="1"/><path d="M1590,-56L1445,62L1613,131Z" fill="#cb8d96" stroke="#cb8d96" fill-opacity="1" stroke-opacity="1"/><path d="M1590,-56L1613,131L1734,-21Z" fill="#ba7b8d" stroke="#ba7b8d" fill-opacity="1" stroke-opacity="1"/><path d="M1590,-56L1734,-21L1816,-120Z" fill="#a75e7b" stroke="#a75e7b" fill-opacity="1" stroke-opacity="1"/><path d="M1734,-21L1613,131L1785,104Z" fill="#b78893" stroke="#b78893" fill-opacity="1" stroke-opacity="1"/><path d="M1734,-21L1785,104L1870,108Z" fill="#a97e8e" stroke="#a97e8e" fill-opacity="1" stroke-opacity="1"/><path d="M1734,-21L1870,108L1816,-120Z" fill="#a06580" stroke="#a06580" fill-opacity="1" stroke-opacity="1"/><path d="M1816,-120L1870,108L2041,-84Z" fill="#935478" stroke="#935478" fill-opacity="1" stroke-opacity="1"/><path d="M1816,-120L2041,-84L2646,-96Z" fill="#723660" stroke="#723660" fill-opacity="1" stroke-opacity="1"/><path d="M2041,-84L1870,108L2054,134Z" fill="#946983" stroke="#946983" fill-opacity="1" stroke-opacity="1"/><path d="M2041,-84L2054,134L2121,100Z" fill="#8c617e" stroke="#8c617e" fill-opacity="1" stroke-opacity="1"/><path d="M2041,-84L2121,100L2127,-68Z" fill="#824871" stroke="#824871" fill-opacity="1" stroke-opacity="1"/><path d="M2041,-84L2127,-68L2469,-64Z" fill="#713262" stroke="#713262" fill-opacity="1" stroke-opacity="1"/><path d="M2041,-84L2469,-64L2646,-96Z" fill="#612259" stroke="#612259" fill-opacity="1" stroke-opacity="1"/><path d="M2127,-68L2121,100L2298,-21Z" fill="#7c4771" stroke="#7c4771" fill-opacity="1" stroke-opacity="1"/><path d="M2127,-68L2298,-21L2469,-64Z" fill="#6b2a62" stroke="#6b2a62" fill-opacity="1" stroke-opacity="1"/><path d="M2298,-21L2121,100L2154,174Z" fill="#85627e" stroke="#85627e" fill-opacity="1" stroke-opacity="1"/><path d="M2298,-21L2154,174L2368,62Z" fill="#7b5678" stroke="#7b5678" fill-opacity="1" stroke-opacity="1"/><path d="M2298,-21L2368,62L2469,-64Z" fill="#693165" stroke="#693165" fill-opacity="1" stroke-opacity="1"/><path d="M2469,-64L2368,62L2531,134Z" fill="#6f3c6b" stroke="#6f3c6b" fill-opacity="1" stroke-opacity="1"/><path d="M2469,-64L2531,134L2627,71Z" fill="#703567" stroke="#703567" fill-opacity="1" stroke-opacity="1"/><path d="M2469,-64L2627,71L2646,-96Z" fill="#671758" stroke="#671758" fill-opacity="1" stroke-opacity="1"/><path d="M2646,-96L2627,71L2719,90Z" fill="#6d215d" stroke="#6d215d" fill-opacity="1" stroke-opacity="1"/><path d="M2646,-96L2719,90L2797,-66Z" fill="#680d53" stroke="#680d53" fill-opacity="1" stroke-opacity="1"/><path d="M2797,-66L2719,90L2803,193Z" fill="#722a61" stroke="#722a61" fill-opacity="1" stroke-opacity="1"/><path d="M2797,-66L2803,193L2823,361Z" fill="#7d496e" stroke="#7d496e" fill-opacity="1" stroke-opacity="1"/><path d="M-116,109L-130,1002L-110,637Z" fill="#cf808c" stroke="#cf808c" fill-opacity="1" stroke-opacity="1"/><path d="M-116,109L-110,637L-102,378Z" fill="#d07e82" stroke="#d07e82" fill-opacity="1" stroke-opacity="1"/><path d="M-116,109L-102,378L-75,186Z" fill="#d15a53" stroke="#d15a53" fill-opacity="1" stroke-opacity="1"/><path d="M-116,109L-75,186L19,114Z" fill="#ce4342" stroke="#ce4342" fill-opacity="1" stroke-opacity="1"/><path d="M19,114L-75,186L114,280Z" fill="#da6252" stroke="#da6252" fill-opacity="1" stroke-opacity="1"/><path d="M19,114L114,280L201,68Z" fill="#de6352" stroke="#de6352" fill-opacity="1" stroke-opacity="1"/><path d="M201,68L114,280L268,247Z" fill="#e97e61" stroke="#e97e61" fill-opacity="1" stroke-opacity="1"/><path d="M201,68L268,247L337,63Z" fill="#e87259" stroke="#e87259" fill-opacity="1" stroke-opacity="1"/><path d="M337,63L268,247L322,254Z" fill="#f28d67" stroke="#f28d67" fill-opacity="1" stroke-opacity="1"/><path d="M337,63L322,254L549,53Z" fill="#f08465" stroke="#f08465" fill-opacity="1" stroke-opacity="1"/><path d="M549,53L322,254L577,255Z" fill="#f9a37b" stroke="#f9a37b" fill-opacity="1" stroke-opacity="1"/><path d="M549,53L577,255L651,177Z" fill="#f8a686" stroke="#f8a686" fill-opacity="1" stroke-opacity="1"/><path d="M549,53L651,177L693,21Z" fill="#f0907e" stroke="#f0907e" fill-opacity="1" stroke-opacity="1"/><path d="M693,21L651,177L806,73Z" fill="#f29c8b" stroke="#f29c8b" fill-opacity="1" stroke-opacity="1"/><path d="M806,73L651,177L798,210Z" fill="#fab499" stroke="#fab499" fill-opacity="1" stroke-opacity="1"/><path d="M806,73L798,210L986,61Z" fill="#f5ab9a" stroke="#f5ab9a" fill-opacity="1" stroke-opacity="1"/><path d="M986,61L798,210L997,241Z" fill="#fac0a8" stroke="#fac0a8" fill-opacity="1" stroke-opacity="1"/><path d="M986,61L997,241L1152,135Z" fill="#f7bcab" stroke="#f7bcab" fill-opacity="1" stroke-opacity="1"/><path d="M1152,135L997,241L1184,244Z" fill="#fbd1bb" stroke="#fbd1bb" fill-opacity="1" stroke-opacity="1"/><path d="M1152,135L1184,244L1233,100Z" fill="#f3c1b0" stroke="#f3c1b0" fill-opacity="1" stroke-opacity="1"/><path d="M1233,100L1184,244L1230,263Z" fill="#f5cdb9" stroke="#f5cdb9" fill-opacity="1" stroke-opacity="1"/><path d="M1233,100L1230,263L1390,235Z" fill="#f2cbb7" stroke="#f2cbb7" fill-opacity="1" stroke-opacity="1"/><path d="M1233,100L1390,235L1445,62Z" fill="#e7b3aa" stroke="#e7b3aa" fill-opacity="1" stroke-opacity="1"/><path d="M1445,62L1390,235L1587,178Z" fill="#e3b9ad" stroke="#e3b9ad" fill-opacity="1" stroke-opacity="1"/><path d="M1445,62L1587,178L1613,131Z" fill="#d4a7a3" stroke="#d4a7a3" fill-opacity="1" stroke-opacity="1"/><path d="M1613,131L1587,178L1700,261Z" fill="#d0b6ab" stroke="#d0b6ab" fill-opacity="1" stroke-opacity="1"/><path d="M1613,131L1700,261L1785,104Z" fill="#c3a8a4" stroke="#c3a8a4" fill-opacity="1" stroke-opacity="1"/><path d="M1785,104L1700,261L1821,183Z" fill="#bba9a3" stroke="#bba9a3" fill-opacity="1" stroke-opacity="1"/><path d="M1785,104L1821,183L1870,108Z" fill="#ad9398" stroke="#ad9398" fill-opacity="1" stroke-opacity="1"/><path d="M1870,108L1821,183L1996,170Z" fill="#a99499" stroke="#a99499" fill-opacity="1" stroke-opacity="1"/><path d="M1870,108L1996,170L2054,134Z" fill="#9f8792" stroke="#9f8792" fill-opacity="1" stroke-opacity="1"/><path d="M2054,134L1996,170L2154,174Z" fill="#998691" stroke="#998691" fill-opacity="1" stroke-opacity="1"/><path d="M2054,134L2154,174L2121,100Z" fill="#927b8b" stroke="#927b8b" fill-opacity="1" stroke-opacity="1"/><path d="M2368,62L2154,174L2370,255Z" fill="#837287" stroke="#837287" fill-opacity="1" stroke-opacity="1"/><path d="M2368,62L2370,255L2509,215Z" fill="#7e6c84" stroke="#7e6c84" fill-opacity="1" stroke-opacity="1"/><path d="M2368,62L2509,215L2531,134Z" fill="#7a5a7a" stroke="#7a5a7a" fill-opacity="1" stroke-opacity="1"/><path d="M2531,134L2509,215L2669,220Z" fill="#80627e" stroke="#80627e" fill-opacity="1" stroke-opacity="1"/><path d="M2531,134L2669,220L2627,71Z" fill="#7a4e74" stroke="#7a4e74" fill-opacity="1" stroke-opacity="1"/><path d="M2627,71L2669,220L2719,90Z" fill="#79446f" stroke="#79446f" fill-opacity="1" stroke-opacity="1"/><path d="M2719,90L2669,220L2803,193Z" fill="#7d4c73" stroke="#7d4c73" fill-opacity="1" stroke-opacity="1"/><path d="M-75,186L-102,378L37,382Z" fill="#d57474" stroke="#d57474" fill-opacity="1" stroke-opacity="1"/><path d="M-75,186L37,382L114,280Z" fill="#db786f" stroke="#db786f" fill-opacity="1" stroke-opacity="1"/><path d="M114,280L37,382L235,336Z" fill="#e39486" stroke="#e39486" fill-opacity="1" stroke-opacity="1"/><path d="M114,280L235,336L268,247Z" fill="#ea957e" stroke="#ea957e" fill-opacity="1" stroke-opacity="1"/><path d="M268,247L235,336L322,254Z" fill="#f09e80" stroke="#f09e80" fill-opacity="1" stroke-opacity="1"/><path d="M322,254L235,336L372,345Z" fill="#f3ab8d" stroke="#f3ab8d" fill-opacity="1" stroke-opacity="1"/><path d="M322,254L372,345L577,255Z" fill="#f8b491" stroke="#f8b491" fill-opacity="1" stroke-opacity="1"/><path d="M577,255L372,345L557,389Z" fill="#fac7aa" stroke="#fac7aa" fill-opacity="1" stroke-opacity="1"/><path d="M577,255L557,389L641,394Z" fill="#fcd5bb" stroke="#fcd5bb" fill-opacity="1" stroke-opacity="1"/><path d="M577,255L641,394L651,177Z" fill="#fcc8aa" stroke="#fcc8aa" fill-opacity="1" stroke-opacity="1"/><path d="M651,177L641,394L798,210Z" fill="#feccaf" stroke="#feccaf" fill-opacity="1" stroke-opacity="1"/><path d="M798,210L641,394L775,400Z" fill="#fee2cc" stroke="#fee2cc" fill-opacity="1" stroke-opacity="1"/><path d="M798,210L775,400L954,353Z" fill="#fde3ce" stroke="#fde3ce" fill-opacity="1" stroke-opacity="1"/><path d="M798,210L954,353L997,241Z" fill="#fdd9c2" stroke="#fdd9c2" fill-opacity="1" stroke-opacity="1"/><path d="M997,241L954,353L1095,394Z" fill="#fcecdc" stroke="#fcecdc" fill-opacity="1" stroke-opacity="1"/><path d="M997,241L1095,394L1184,244Z" fill="#fbe6d6" stroke="#fbe6d6" fill-opacity="1" stroke-opacity="1"/><path d="M1184,244L1095,394L1230,263Z" fill="#f7e6d8" stroke="#f7e6d8" fill-opacity="1" stroke-opacity="1"/><path d="M1230,263L1095,394L1322,359Z" fill="#f5eee3" stroke="#f5eee3" fill-opacity="1" stroke-opacity="1"/><path d="M1230,263L1322,359L1390,235Z" fill="#f0dfd2" stroke="#f0dfd2" fill-opacity="1" stroke-opacity="1"/><path d="M1390,235L1322,359L1377,393Z" fill="#ede8df" stroke="#ede8df" fill-opacity="1" stroke-opacity="1"/><path d="M1390,235L1377,393L1523,394Z" fill="#eae9e2" stroke="#eae9e2" fill-opacity="1" stroke-opacity="1"/><path d="M1390,235L1523,394L1587,178Z" fill="#e3d4ca" stroke="#e3d4ca" fill-opacity="1" stroke-opacity="1"/><path d="M1587,178L1523,394L1696,329Z" fill="#d4d3ce" stroke="#d4d3ce" fill-opacity="1" stroke-opacity="1"/><path d="M1587,178L1696,329L1700,261Z" fill="#ccc4be" stroke="#ccc4be" fill-opacity="1" stroke-opacity="1"/><path d="M1700,261L1696,329L1856,365Z" fill="#bfcbce" stroke="#bfcbce" fill-opacity="1" stroke-opacity="1"/><path d="M1700,261L1856,365L1821,183Z" fill="#b9bcbc" stroke="#b9bcbc" fill-opacity="1" stroke-opacity="1"/><path d="M1821,183L1856,365L1996,170Z" fill="#adadae" stroke="#adadae" fill-opacity="1" stroke-opacity="1"/><path d="M1996,170L1856,365L2025,369Z" fill="#a7b5bf" stroke="#a7b5bf" fill-opacity="1" stroke-opacity="1"/><path d="M1996,170L2025,369L2154,174Z" fill="#9d9da6" stroke="#9d9da6" fill-opacity="1" stroke-opacity="1"/><path d="M2154,174L2025,369L2222,359Z" fill="#96a5b6" stroke="#96a5b6" fill-opacity="1" stroke-opacity="1"/><path d="M2154,174L2222,359L2370,255Z" fill="#8b91a5" stroke="#8b91a5" fill-opacity="1" stroke-opacity="1"/><path d="M2370,255L2222,359L2274,424Z" fill="#87a1bd" stroke="#87a1bd" fill-opacity="1" stroke-opacity="1"/><path d="M2370,255L2274,424L2506,351Z" fill="#8098b7" stroke="#8098b7" fill-opacity="1" stroke-opacity="1"/><path d="M2370,255L2506,351L2509,215Z" fill="#80809e" stroke="#80809e" fill-opacity="1" stroke-opacity="1"/><path d="M2509,215L2506,351L2669,220Z" fill="#807595" stroke="#807595" fill-opacity="1" stroke-opacity="1"/><path d="M2669,220L2506,351L2670,358Z" fill="#807ba2" stroke="#807ba2" fill-opacity="1" stroke-opacity="1"/><path d="M2669,220L2670,358L2823,361Z" fill="#80729e" stroke="#80729e" fill-opacity="1" stroke-opacity="1"/><path d="M2669,220L2823,361L2803,193Z" fill="#80628a" stroke="#80628a" fill-opacity="1" stroke-opacity="1"/><path d="M-102,378L-110,637L-34,517Z" fill="#d2808c" stroke="#d2808c" fill-opacity="1" stroke-opacity="1"/><path d="M-102,378L-34,517L37,382Z" fill="#d6878c" stroke="#d6878c" fill-opacity="1" stroke-opacity="1"/><path d="M37,382L-34,517L104,539Z" fill="#dc9193" stroke="#dc9193" fill-opacity="1" stroke-opacity="1"/><path d="M37,382L104,539L235,336Z" fill="#e39f97" stroke="#e39f97" fill-opacity="1" stroke-opacity="1"/><path d="M235,336L104,539L262,486Z" fill="#e9ab9f" stroke="#e9ab9f" fill-opacity="1" stroke-opacity="1"/><path d="M235,336L262,486L347,473Z" fill="#f0b8a4" stroke="#f0b8a4" fill-opacity="1" stroke-opacity="1"/><path d="M235,336L347,473L372,345Z" fill="#f3bda4" stroke="#f3bda4" fill-opacity="1" stroke-opacity="1"/><path d="M372,345L347,473L557,389Z" fill="#f8cbb1" stroke="#f8cbb1" fill-opacity="1" stroke-opacity="1"/><path d="M557,389L347,473L565,488Z" fill="#fad2bc" stroke="#fad2bc" fill-opacity="1" stroke-opacity="1"/><path d="M557,389L565,488L641,394Z" fill="#fbddc8" stroke="#fbddc8" fill-opacity="1" stroke-opacity="1"/><path d="M641,394L565,488L715,521Z" fill="#fde3d2" stroke="#fde3d2" fill-opacity="1" stroke-opacity="1"/><path d="M641,394L715,521L775,400Z" fill="#feebda" stroke="#feebda" fill-opacity="1" stroke-opacity="1"/><path d="M775,400L715,521L861,469Z" fill="#feefe2" stroke="#feefe2" fill-opacity="1" stroke-opacity="1"/><path d="M775,400L861,469L954,353Z" fill="#fdf2e4" stroke="#fdf2e4" fill-opacity="1" stroke-opacity="1"/><path d="M954,353L861,469L957,528Z" fill="#fdf5ea" stroke="#fdf5ea" fill-opacity="1" stroke-opacity="1"/><path d="M954,353L957,528L1095,394Z" fill="#fcf8ee" stroke="#fcf8ee" fill-opacity="1" stroke-opacity="1"/><path d="M1095,394L957,528L1167,578Z" fill="#fbfaf6" stroke="#fbfaf6" fill-opacity="1" stroke-opacity="1"/><path d="M1095,394L1167,578L1322,359Z" fill="#f6f9f4" stroke="#f6f9f4" fill-opacity="1" stroke-opacity="1"/><path d="M1322,359L1167,578L1327,554Z" fill="#f2f7f6" stroke="#f2f7f6" fill-opacity="1" stroke-opacity="1"/><path d="M1322,359L1327,554L1377,393Z" fill="#eff5f2" stroke="#eff5f2" fill-opacity="1" stroke-opacity="1"/><path d="M1377,393L1327,554L1464,511Z" fill="#ecf4f4" stroke="#ecf4f4" fill-opacity="1" stroke-opacity="1"/><path d="M1377,393L1464,511L1523,394Z" fill="#e9f2f1" stroke="#e9f2f1" fill-opacity="1" stroke-opacity="1"/><path d="M1523,394L1464,511L1581,484Z" fill="#e0edf0" stroke="#e0edf0" fill-opacity="1" stroke-opacity="1"/><path d="M1523,394L1581,484L1696,329Z" fill="#d4e7ea" stroke="#d4e7ea" fill-opacity="1" stroke-opacity="1"/><path d="M1696,329L1581,484L1677,571Z" fill="#cde3ea" stroke="#cde3ea" fill-opacity="1" stroke-opacity="1"/><path d="M1696,329L1677,571L1839,524Z" fill="#c0dce7" stroke="#c0dce7" fill-opacity="1" stroke-opacity="1"/><path d="M1696,329L1839,524L1856,365Z" fill="#b8d7e1" stroke="#b8d7e1" fill-opacity="1" stroke-opacity="1"/><path d="M1856,365L1839,524L2025,369Z" fill="#accddc" stroke="#accddc" fill-opacity="1" stroke-opacity="1"/><path d="M2025,369L1839,524L2082,514Z" fill="#a5c6db" stroke="#a5c6db" fill-opacity="1" stroke-opacity="1"/><path d="M2025,369L2082,514L2222,359Z" fill="#98bbd2" stroke="#98bbd2" fill-opacity="1" stroke-opacity="1"/><path d="M2222,359L2082,514L2200,504Z" fill="#93b5d2" stroke="#93b5d2" fill-opacity="1" stroke-opacity="1"/><path d="M2222,359L2200,504L2274,424Z" fill="#8dafcd" stroke="#8dafcd" fill-opacity="1" stroke-opacity="1"/><path d="M2274,424L2200,504L2279,555Z" fill="#8baecf" stroke="#8baecf" fill-opacity="1" stroke-opacity="1"/><path d="M2274,424L2279,555L2500,547Z" fill="#81a4cb" stroke="#81a4cb" fill-opacity="1" stroke-opacity="1"/><path d="M2274,424L2500,547L2506,351Z" fill="#809dc4" stroke="#809dc4" fill-opacity="1" stroke-opacity="1"/><path d="M2506,351L2500,547L2645,524Z" fill="#8092c0" stroke="#8092c0" fill-opacity="1" stroke-opacity="1"/><path d="M2506,351L2645,524L2670,358Z" fill="#808dbb" stroke="#808dbb" fill-opacity="1" stroke-opacity="1"/><path d="M2670,358L2645,524L2744,477Z" fill="#8086b9" stroke="#8086b9" fill-opacity="1" stroke-opacity="1"/><path d="M2670,358L2744,477L2823,361Z" fill="#8080b3" stroke="#8080b3" fill-opacity="1" stroke-opacity="1"/><path d="M2823,361L2744,477L2718,641Z" fill="#8080b7" stroke="#8080b7" fill-opacity="1" stroke-opacity="1"/><path d="M2823,361L2718,641L2755,801Z" fill="#7f80ba" stroke="#7f80ba" fill-opacity="1" stroke-opacity="1"/><path d="M2823,361L2755,801L2772,1477Z" fill="#5770b7" stroke="#5770b7" fill-opacity="1" stroke-opacity="1"/><path d="M-34,517L-110,637L23,643Z" fill="#d58592" stroke="#d58592" fill-opacity="1" stroke-opacity="1"/><path d="M-34,517L23,643L104,539Z" fill="#db9197" stroke="#db9197" fill-opacity="1" stroke-opacity="1"/><path d="M104,539L23,643L257,666Z" fill="#e3a09f" stroke="#e3a09f" fill-opacity="1" stroke-opacity="1"/><path d="M104,539L257,666L262,486Z" fill="#eaaca4" stroke="#eaaca4" fill-opacity="1" stroke-opacity="1"/><path d="M262,486L257,666L356,672Z" fill="#f1b9ab" stroke="#f1b9ab" fill-opacity="1" stroke-opacity="1"/><path d="M262,486L356,672L347,473Z" fill="#f4beac" stroke="#f4beac" fill-opacity="1" stroke-opacity="1"/><path d="M347,473L356,672L565,619Z" fill="#f8cbb9" stroke="#f8cbb9" fill-opacity="1" stroke-opacity="1"/><path d="M347,473L565,619L565,488Z" fill="#fad3c0" stroke="#fad3c0" fill-opacity="1" stroke-opacity="1"/><path d="M565,488L565,619L649,628Z" fill="#fcded0" stroke="#fcded0" fill-opacity="1" stroke-opacity="1"/><path d="M565,488L649,628L715,521Z" fill="#fde3d6" stroke="#fde3d6" fill-opacity="1" stroke-opacity="1"/><path d="M715,521L649,628L853,665Z" fill="#feeee4" stroke="#feeee4" fill-opacity="1" stroke-opacity="1"/><path d="M715,521L853,665L861,469Z" fill="#fef0e7" stroke="#fef0e7" fill-opacity="1" stroke-opacity="1"/><path d="M861,469L853,665L957,528Z" fill="#fdf3ed" stroke="#fdf3ed" fill-opacity="1" stroke-opacity="1"/><path d="M957,528L853,665L928,652Z" fill="#fcf4ef" stroke="#fcf4ef" fill-opacity="1" stroke-opacity="1"/><path d="M957,528L928,652L1166,631Z" fill="#fbf8f6" stroke="#fbf8f6" fill-opacity="1" stroke-opacity="1"/><path d="M957,528L1166,631L1167,578Z" fill="#fbfbfb" stroke="#fbfbfb" fill-opacity="1" stroke-opacity="1"/><path d="M1167,578L1166,631L1305,636Z" fill="#f5f8fa" stroke="#f5f8fa" fill-opacity="1" stroke-opacity="1"/><path d="M1167,578L1305,636L1327,554Z" fill="#f2f7fa" stroke="#f2f7fa" fill-opacity="1" stroke-opacity="1"/><path d="M1327,554L1305,636L1484,677Z" fill="#ecf4f9" stroke="#ecf4f9" fill-opacity="1" stroke-opacity="1"/><path d="M1327,554L1484,677L1464,511Z" fill="#eaf3f8" stroke="#eaf3f8" fill-opacity="1" stroke-opacity="1"/><path d="M1464,511L1484,677L1581,484Z" fill="#e1eef5" stroke="#e1eef5" fill-opacity="1" stroke-opacity="1"/><path d="M1581,484L1484,677L1677,571Z" fill="#d7e9f2" stroke="#d7e9f2" fill-opacity="1" stroke-opacity="1"/><path d="M1677,571L1484,677L1553,725Z" fill="#d7e9f3" stroke="#d7e9f3" fill-opacity="1" stroke-opacity="1"/><path d="M1677,571L1553,725L1678,692Z" fill="#cee4f0" stroke="#cee4f0" fill-opacity="1" stroke-opacity="1"/><path d="M1677,571L1678,692L1871,646Z" fill="#bfdbeb" stroke="#bfdbeb" fill-opacity="1" stroke-opacity="1"/><path d="M1677,571L1871,646L1839,524Z" fill="#b8d7e9" stroke="#b8d7e9" fill-opacity="1" stroke-opacity="1"/><path d="M1839,524L1871,646L2022,619Z" fill="#abcde3" stroke="#abcde3" fill-opacity="1" stroke-opacity="1"/><path d="M1839,524L2022,619L2082,514Z" fill="#a5c6df" stroke="#a5c6df" fill-opacity="1" stroke-opacity="1"/><path d="M2082,514L2022,619L2163,712Z" fill="#9abcdb" stroke="#9abcdb" fill-opacity="1" stroke-opacity="1"/><path d="M2082,514L2163,712L2200,504Z" fill="#95b7d8" stroke="#95b7d8" fill-opacity="1" stroke-opacity="1"/><path d="M2200,504L2163,712L2279,555Z" fill="#8eb1d5" stroke="#8eb1d5" fill-opacity="1" stroke-opacity="1"/><path d="M2279,555L2163,712L2294,721Z" fill="#8aaed3" stroke="#8aaed3" fill-opacity="1" stroke-opacity="1"/><path d="M2279,555L2294,721L2505,666Z" fill="#7fa4ce" stroke="#7fa4ce" fill-opacity="1" stroke-opacity="1"/><path d="M2279,555L2505,666L2500,547Z" fill="#809dcb" stroke="#809dcb" fill-opacity="1" stroke-opacity="1"/><path d="M2500,547L2505,666L2645,524Z" fill="#8092c5" stroke="#8092c5" fill-opacity="1" stroke-opacity="1"/><path d="M2645,524L2505,666L2628,711Z" fill="#7f8ec3" stroke="#7f8ec3" fill-opacity="1" stroke-opacity="1"/><path d="M2645,524L2628,711L2718,641Z" fill="#7f88bf" stroke="#7f88bf" fill-opacity="1" stroke-opacity="1"/><path d="M2645,524L2718,641L2744,477Z" fill="#8084bc" stroke="#8084bc" fill-opacity="1" stroke-opacity="1"/><path d="M-110,637L-130,1002L-46,867Z" fill="#b7768d" stroke="#b7768d" fill-opacity="1" stroke-opacity="1"/><path d="M-110,637L-46,867L23,643Z" fill="#d38592" stroke="#d38592" fill-opacity="1" stroke-opacity="1"/><path d="M23,643L-46,867L69,838Z" fill="#d28c96" stroke="#d28c96" fill-opacity="1" stroke-opacity="1"/><path d="M23,643L69,838L257,666Z" fill="#e09e9e" stroke="#e09e9e" fill-opacity="1" stroke-opacity="1"/><path d="M257,666L69,838L240,837Z" fill="#e0a7a3" stroke="#e0a7a3" fill-opacity="1" stroke-opacity="1"/><path d="M257,666L240,837L384,779Z" fill="#eebaab" stroke="#eebaab" fill-opacity="1" stroke-opacity="1"/><path d="M257,666L384,779L356,672Z" fill="#f2c0ae" stroke="#f2c0ae" fill-opacity="1" stroke-opacity="1"/><path d="M356,672L384,779L565,619Z" fill="#f7ccba" stroke="#f7ccba" fill-opacity="1" stroke-opacity="1"/><path d="M565,619L384,779L557,786Z" fill="#f7d4c4" stroke="#f7d4c4" fill-opacity="1" stroke-opacity="1"/><path d="M565,619L557,786L649,628Z" fill="#faded0" stroke="#faded0" fill-opacity="1" stroke-opacity="1"/><path d="M649,628L557,786L623,859Z" fill="#f9e0d2" stroke="#f9e0d2" fill-opacity="1" stroke-opacity="1"/><path d="M649,628L623,859L809,827Z" fill="#f9e8de" stroke="#f9e8de" fill-opacity="1" stroke-opacity="1"/><path d="M649,628L809,827L853,665Z" fill="#fcefe6" stroke="#fcefe6" fill-opacity="1" stroke-opacity="1"/><path d="M853,665L809,827L947,856Z" fill="#f5f0ec" stroke="#f5f0ec" fill-opacity="1" stroke-opacity="1"/><path d="M853,665L947,856L928,652Z" fill="#faf4ef" stroke="#faf4ef" fill-opacity="1" stroke-opacity="1"/><path d="M928,652L947,856L1088,831Z" fill="#f5f5f4" stroke="#f5f5f4" fill-opacity="1" stroke-opacity="1"/><path d="M928,652L1088,831L1166,631Z" fill="#fafaf9" stroke="#fafaf9" fill-opacity="1" stroke-opacity="1"/><path d="M1166,631L1088,831L1314,793Z" fill="#f3f9fa" stroke="#f3f9fa" fill-opacity="1" stroke-opacity="1"/><path d="M1166,631L1314,793L1305,636Z" fill="#f1f7fa" stroke="#f1f7fa" fill-opacity="1" stroke-opacity="1"/><path d="M1305,636L1314,793L1484,677Z" fill="#ebf5f9" stroke="#ebf5f9" fill-opacity="1" stroke-opacity="1"/><path d="M1484,677L1314,793L1450,830Z" fill="#e7f3f8" stroke="#e7f3f8" fill-opacity="1" stroke-opacity="1"/><path d="M1484,677L1450,830L1553,725Z" fill="#e1f0f6" stroke="#e1f0f6" fill-opacity="1" stroke-opacity="1"/><path d="M1553,725L1450,830L1609,804Z" fill="#d3e9f4" stroke="#d3e9f4" fill-opacity="1" stroke-opacity="1"/><path d="M1553,725L1609,804L1678,692Z" fill="#d0e6f1" stroke="#d0e6f1" fill-opacity="1" stroke-opacity="1"/><path d="M1678,692L1609,804L1759,858Z" fill="#bfdeed" stroke="#bfdeed" fill-opacity="1" stroke-opacity="1"/><path d="M1678,692L1759,858L1851,767Z" fill="#b8d9ea" stroke="#b8d9ea" fill-opacity="1" stroke-opacity="1"/><path d="M1678,692L1851,767L1871,646Z" fill="#b5d7e9" stroke="#b5d7e9" fill-opacity="1" stroke-opacity="1"/><path d="M1871,646L1851,767L2060,775Z" fill="#a7cbe3" stroke="#a7cbe3" fill-opacity="1" stroke-opacity="1"/><path d="M1871,646L2060,775L2022,619Z" fill="#a3c6e0" stroke="#a3c6e0" fill-opacity="1" stroke-opacity="1"/><path d="M2022,619L2060,775L2163,712Z" fill="#99bddb" stroke="#99bddb" fill-opacity="1" stroke-opacity="1"/><path d="M2163,712L2060,775L2193,791Z" fill="#93b8d8" stroke="#93b8d8" fill-opacity="1" stroke-opacity="1"/><path d="M2163,712L2193,791L2294,721Z" fill="#8cb1d5" stroke="#8cb1d5" fill-opacity="1" stroke-opacity="1"/><path d="M2294,721L2193,791L2366,779Z" fill="#85abd1" stroke="#85abd1" fill-opacity="1" stroke-opacity="1"/><path d="M2294,721L2366,779L2505,666Z" fill="#7da1cc" stroke="#7da1cc" fill-opacity="1" stroke-opacity="1"/><path d="M2505,666L2366,779L2434,829Z" fill="#7d9dca" stroke="#7d9dca" fill-opacity="1" stroke-opacity="1"/><path d="M2505,666L2434,829L2572,807Z" fill="#7c96c7" stroke="#7c96c7" fill-opacity="1" stroke-opacity="1"/><path d="M2505,666L2572,807L2628,711Z" fill="#7d90c4" stroke="#7d90c4" fill-opacity="1" stroke-opacity="1"/><path d="M2628,711L2572,807L2755,801Z" fill="#7a88c0" stroke="#7a88c0" fill-opacity="1" stroke-opacity="1"/><path d="M2628,711L2755,801L2718,641Z" fill="#7e84be" stroke="#7e84be" fill-opacity="1" stroke-opacity="1"/><path d="M-46,867L-130,1002L43,1019Z" fill="#92698d" stroke="#92698d" fill-opacity="1" stroke-opacity="1"/><path d="M-46,867L43,1019L69,838Z" fill="#a97b94" stroke="#a97b94" fill-opacity="1" stroke-opacity="1"/><path d="M69,838L43,1019L200,957Z" fill="#a6839a" stroke="#a6839a" fill-opacity="1" stroke-opacity="1"/><path d="M69,838L200,957L240,837Z" fill="#bf97a0" stroke="#bf97a0" fill-opacity="1" stroke-opacity="1"/><path d="M240,837L200,957L381,948Z" fill="#bca1a7" stroke="#bca1a7" fill-opacity="1" stroke-opacity="1"/><path d="M240,837L381,948L384,779Z" fill="#d4b3ac" stroke="#d4b3ac" fill-opacity="1" stroke-opacity="1"/><path d="M384,779L381,948L557,786Z" fill="#dec3ba" stroke="#dec3ba" fill-opacity="1" stroke-opacity="1"/><path d="M557,786L381,948L524,1024Z" fill="#c4bdbf" stroke="#c4bdbf" fill-opacity="1" stroke-opacity="1"/><path d="M557,786L524,1024L623,859Z" fill="#cfcaca" stroke="#cfcaca" fill-opacity="1" stroke-opacity="1"/><path d="M623,859L524,1024L669,1002Z" fill="#b9c3cd" stroke="#b9c3cd" fill-opacity="1" stroke-opacity="1"/><path d="M623,859L669,1002L809,827Z" fill="#d0d7dc" stroke="#d0d7dc" fill-opacity="1" stroke-opacity="1"/><path d="M809,827L669,1002L871,990Z" fill="#c2d7e3" stroke="#c2d7e3" fill-opacity="1" stroke-opacity="1"/><path d="M809,827L871,990L947,856Z" fill="#d1e1ea" stroke="#d1e1ea" fill-opacity="1" stroke-opacity="1"/><path d="M947,856L871,990L997,947Z" fill="#c3deed" stroke="#c3deed" fill-opacity="1" stroke-opacity="1"/><path d="M947,856L997,947L1088,831Z" fill="#d4e8f3" stroke="#d4e8f3" fill-opacity="1" stroke-opacity="1"/><path d="M1088,831L997,947L1119,987Z" fill="#c5e4f6" stroke="#c5e4f6" fill-opacity="1" stroke-opacity="1"/><path d="M1088,831L1119,987L1314,793Z" fill="#d2eaf9" stroke="#d2eaf9" fill-opacity="1" stroke-opacity="1"/><path d="M1314,793L1119,987L1283,1006Z" fill="#bbe1f6" stroke="#bbe1f6" fill-opacity="1" stroke-opacity="1"/><path d="M1314,793L1283,1006L1438,951Z" fill="#bae0f6" stroke="#bae0f6" fill-opacity="1" stroke-opacity="1"/><path d="M1314,793L1438,951L1450,830Z" fill="#cae7f6" stroke="#cae7f6" fill-opacity="1" stroke-opacity="1"/><path d="M1450,830L1438,951L1609,804Z" fill="#c1e2f4" stroke="#c1e2f4" fill-opacity="1" stroke-opacity="1"/><path d="M1609,804L1438,951L1574,1035Z" fill="#a4d5f1" stroke="#a4d5f1" fill-opacity="1" stroke-opacity="1"/><path d="M1609,804L1574,1035L1685,964Z" fill="#97cded" stroke="#97cded" fill-opacity="1" stroke-opacity="1"/><path d="M1609,804L1685,964L1759,858Z" fill="#a1d1eb" stroke="#a1d1eb" fill-opacity="1" stroke-opacity="1"/><path d="M1759,858L1685,964L1897,926Z" fill="#86c3e6" stroke="#86c3e6" fill-opacity="1" stroke-opacity="1"/><path d="M1759,858L1897,926L1851,767Z" fill="#94c8e5" stroke="#94c8e5" fill-opacity="1" stroke-opacity="1"/><path d="M1851,767L1897,926L2060,775Z" fill="#93c2e1" stroke="#93c2e1" fill-opacity="1" stroke-opacity="1"/><path d="M2060,775L1897,926L1993,1013Z" fill="#74b3dd" stroke="#74b3dd" fill-opacity="1" stroke-opacity="1"/><path d="M2060,775L1993,1013L2209,976Z" fill="#64a7d7" stroke="#64a7d7" fill-opacity="1" stroke-opacity="1"/><path d="M2060,775L2209,976L2193,791Z" fill="#76abd6" stroke="#76abd6" fill-opacity="1" stroke-opacity="1"/><path d="M2193,791L2209,976L2292,965Z" fill="#5a9bd1" stroke="#5a9bd1" fill-opacity="1" stroke-opacity="1"/><path d="M2193,791L2292,965L2366,779Z" fill="#6ba0d0" stroke="#6ba0d0" fill-opacity="1" stroke-opacity="1"/><path d="M2366,779L2292,965L2434,829Z" fill="#5f96cc" stroke="#5f96cc" fill-opacity="1" stroke-opacity="1"/><path d="M2434,829L2292,965L2524,1013Z" fill="#4586c8" stroke="#4586c8" fill-opacity="1" stroke-opacity="1"/><path d="M2434,829L2524,1013L2572,807Z" fill="#5685c4" stroke="#5685c4" fill-opacity="1" stroke-opacity="1"/><path d="M2572,807L2524,1013L2649,1035Z" fill="#4075bf" stroke="#4075bf" fill-opacity="1" stroke-opacity="1"/><path d="M2572,807L2649,1035L2740,973Z" fill="#4470bc" stroke="#4470bc" fill-opacity="1" stroke-opacity="1"/><path d="M2572,807L2740,973L2755,801Z" fill="#5e78bc" stroke="#5e78bc" fill-opacity="1" stroke-opacity="1"/><path d="M2755,801L2740,973L2742,1134Z" fill="#3b63b6" stroke="#3b63b6" fill-opacity="1" stroke-opacity="1"/><path d="M2755,801L2742,1134L2772,1477Z" fill="#163fa3" stroke="#163fa3" fill-opacity="1" stroke-opacity="1"/><path d="M-130,1002L-113,1376L-61,1232Z" fill="#58316f" stroke="#58316f" fill-opacity="1" stroke-opacity="1"/><path d="M-130,1002L-61,1232L-59,1185Z" fill="#683f77" stroke="#683f77" fill-opacity="1" stroke-opacity="1"/><path d="M-130,1002L-59,1185L43,1019Z" fill="#7a5282" stroke="#7a5282" fill-opacity="1" stroke-opacity="1"/><path d="M43,1019L-59,1185L54,1230Z" fill="#6f4c7e" stroke="#6f4c7e" fill-opacity="1" stroke-opacity="1"/><path d="M43,1019L54,1230L125,1179Z" fill="#745582" stroke="#745582" fill-opacity="1" stroke-opacity="1"/><path d="M43,1019L125,1179L170,1104Z" fill="#81648a" stroke="#81648a" fill-opacity="1" stroke-opacity="1"/><path d="M43,1019L170,1104L200,957Z" fill="#937894" stroke="#937894" fill-opacity="1" stroke-opacity="1"/><path d="M200,957L170,1104L357,1100Z" fill="#968399" stroke="#968399" fill-opacity="1" stroke-opacity="1"/><path d="M200,957L357,1100L381,948Z" fill="#a798a4" stroke="#a798a4" fill-opacity="1" stroke-opacity="1"/><path d="M381,948L357,1100L524,1024Z" fill="#a8a2ad" stroke="#a8a2ad" fill-opacity="1" stroke-opacity="1"/><path d="M524,1024L357,1100L500,1100Z" fill="#9d9cad" stroke="#9d9cad" fill-opacity="1" stroke-opacity="1"/><path d="M524,1024L500,1100L697,1072Z" fill="#a2aabd" stroke="#a2aabd" fill-opacity="1" stroke-opacity="1"/><path d="M524,1024L697,1072L669,1002Z" fill="#aab7c9" stroke="#aab7c9" fill-opacity="1" stroke-opacity="1"/><path d="M669,1002L697,1072L766,1076Z" fill="#a7bcd2" stroke="#a7bcd2" fill-opacity="1" stroke-opacity="1"/><path d="M669,1002L766,1076L871,990Z" fill="#adc6db" stroke="#adc6db" fill-opacity="1" stroke-opacity="1"/><path d="M871,990L766,1076L966,1122Z" fill="#a4c1dd" stroke="#a4c1dd" fill-opacity="1" stroke-opacity="1"/><path d="M871,990L966,1122L997,947Z" fill="#adcde6" stroke="#adcde6" fill-opacity="1" stroke-opacity="1"/><path d="M997,947L966,1122L1090,1069Z" fill="#a6cbe9" stroke="#a6cbe9" fill-opacity="1" stroke-opacity="1"/><path d="M997,947L1090,1069L1119,987Z" fill="#b0d6f0" stroke="#b0d6f0" fill-opacity="1" stroke-opacity="1"/><path d="M1119,987L1090,1069L1283,1006Z" fill="#a8d1f0" stroke="#a8d1f0" fill-opacity="1" stroke-opacity="1"/><path d="M1283,1006L1090,1069L1303,1152Z" fill="#99c4e9" stroke="#99c4e9" fill-opacity="1" stroke-opacity="1"/><path d="M1283,1006L1303,1152L1421,1114Z" fill="#8fbee6" stroke="#8fbee6" fill-opacity="1" stroke-opacity="1"/><path d="M1283,1006L1421,1114L1438,951Z" fill="#9ccbed" stroke="#9ccbed" fill-opacity="1" stroke-opacity="1"/><path d="M1438,951L1421,1114L1574,1035Z" fill="#94c6eb" stroke="#94c6eb" fill-opacity="1" stroke-opacity="1"/><path d="M1574,1035L1421,1114L1616,1120Z" fill="#7fb6e2" stroke="#7fb6e2" fill-opacity="1" stroke-opacity="1"/><path d="M1574,1035L1616,1120L1683,1124Z" fill="#71aedd" stroke="#71aedd" fill-opacity="1" stroke-opacity="1"/><path d="M1574,1035L1683,1124L1685,964Z" fill="#79b7e2" stroke="#79b7e2" fill-opacity="1" stroke-opacity="1"/><path d="M1685,964L1683,1124L1932,1096Z" fill="#63a8db" stroke="#63a8db" fill-opacity="1" stroke-opacity="1"/><path d="M1685,964L1932,1096L1897,926Z" fill="#68b0df" stroke="#68b0df" fill-opacity="1" stroke-opacity="1"/><path d="M1897,926L1932,1096L1993,1013Z" fill="#5ba3d8" stroke="#5ba3d8" fill-opacity="1" stroke-opacity="1"/><path d="M1993,1013L1932,1096L1996,1098Z" fill="#4b94d0" stroke="#4b94d0" fill-opacity="1" stroke-opacity="1"/><path d="M1993,1013L1996,1098L2209,976Z" fill="#4b95d0" stroke="#4b95d0" fill-opacity="1" stroke-opacity="1"/><path d="M2209,976L1996,1098L2232,1136Z" fill="#3a85c8" stroke="#3a85c8" fill-opacity="1" stroke-opacity="1"/><path d="M2209,976L2232,1136L2323,1115Z" fill="#2e79c2" stroke="#2e79c2" fill-opacity="1" stroke-opacity="1"/><path d="M2209,976L2323,1115L2292,965Z" fill="#3983c7" stroke="#3983c7" fill-opacity="1" stroke-opacity="1"/><path d="M2292,965L2323,1115L2423,1099Z" fill="#2974bf" stroke="#2974bf" fill-opacity="1" stroke-opacity="1"/><path d="M2292,965L2423,1099L2524,1013Z" fill="#2f75c0" stroke="#2f75c0" fill-opacity="1" stroke-opacity="1"/><path d="M2524,1013L2423,1099L2610,1082Z" fill="#2664b6" stroke="#2664b6" fill-opacity="1" stroke-opacity="1"/><path d="M2524,1013L2610,1082L2649,1035Z" fill="#2b61b5" stroke="#2b61b5" fill-opacity="1" stroke-opacity="1"/><path d="M2649,1035L2610,1082L2742,1134Z" fill="#2252ad" stroke="#2252ad" fill-opacity="1" stroke-opacity="1"/><path d="M2649,1035L2742,1134L2740,973Z" fill="#2a55af" stroke="#2a55af" fill-opacity="1" stroke-opacity="1"/><path d="M-59,1185L-61,1232L54,1230Z" fill="#5c3773" stroke="#5c3773" fill-opacity="1" stroke-opacity="1"/><path d="M125,1179L54,1230L271,1260Z" fill="#695180" stroke="#695180" fill-opacity="1" stroke-opacity="1"/><path d="M125,1179L271,1260L170,1104Z" fill="#755f87" stroke="#755f87" fill-opacity="1" stroke-opacity="1"/><path d="M170,1104L271,1260L357,1100Z" fill="#817190" stroke="#817190" fill-opacity="1" stroke-opacity="1"/><path d="M357,1100L271,1260L348,1244Z" fill="#7c708f" stroke="#7c708f" fill-opacity="1" stroke-opacity="1"/><path d="M357,1100L348,1244L500,1100Z" fill="#8c869d" stroke="#8c869d" fill-opacity="1" stroke-opacity="1"/><path d="M500,1100L348,1244L493,1285Z" fill="#7f7e9c" stroke="#7f7e9c" fill-opacity="1" stroke-opacity="1"/><path d="M500,1100L493,1285L726,1216Z" fill="#848eaf" stroke="#848eaf" fill-opacity="1" stroke-opacity="1"/><path d="M500,1100L726,1216L697,1072Z" fill="#95a4c0" stroke="#95a4c0" fill-opacity="1" stroke-opacity="1"/><path d="M697,1072L726,1216L766,1076Z" fill="#98b0cd" stroke="#98b0cd" fill-opacity="1" stroke-opacity="1"/><path d="M766,1076L726,1216L856,1228Z" fill="#8ca7cb" stroke="#8ca7cb" fill-opacity="1" stroke-opacity="1"/><path d="M766,1076L856,1228L966,1122Z" fill="#93b1d3" stroke="#93b1d3" fill-opacity="1" stroke-opacity="1"/><path d="M966,1122L856,1228L1020,1304Z" fill="#81a4d1" stroke="#81a4d1" fill-opacity="1" stroke-opacity="1"/><path d="M966,1122L1020,1304L1104,1250Z" fill="#7fa6d5" stroke="#7fa6d5" fill-opacity="1" stroke-opacity="1"/><path d="M966,1122L1104,1250L1090,1069Z" fill="#90b7df" stroke="#90b7df" fill-opacity="1" stroke-opacity="1"/><path d="M1090,1069L1104,1250L1303,1152Z" fill="#8ab5e1" stroke="#8ab5e1" fill-opacity="1" stroke-opacity="1"/><path d="M1303,1152L1104,1250L1297,1222Z" fill="#7ba8da" stroke="#7ba8da" fill-opacity="1" stroke-opacity="1"/><path d="M1303,1152L1297,1222L1408,1271Z" fill="#74a4d8" stroke="#74a4d8" fill-opacity="1" stroke-opacity="1"/><path d="M1303,1152L1408,1271L1421,1114Z" fill="#7aabdc" stroke="#7aabdc" fill-opacity="1" stroke-opacity="1"/><path d="M1421,1114L1408,1271L1570,1227Z" fill="#70a3d9" stroke="#70a3d9" fill-opacity="1" stroke-opacity="1"/><path d="M1421,1114L1570,1227L1616,1120Z" fill="#71a8db" stroke="#71a8db" fill-opacity="1" stroke-opacity="1"/><path d="M1616,1120L1570,1227L1683,1124Z" fill="#63a0d7" stroke="#63a0d7" fill-opacity="1" stroke-opacity="1"/><path d="M1683,1124L1570,1227L1668,1277Z" fill="#5594d0" stroke="#5594d0" fill-opacity="1" stroke-opacity="1"/><path d="M1683,1124L1668,1277L1887,1275Z" fill="#4288c9" stroke="#4288c9" fill-opacity="1" stroke-opacity="1"/><path d="M1683,1124L1887,1275L1932,1096Z" fill="#438dcc" stroke="#438dcc" fill-opacity="1" stroke-opacity="1"/><path d="M1932,1096L1887,1275L2025,1250Z" fill="#2f7ac2" stroke="#2f7ac2" fill-opacity="1" stroke-opacity="1"/><path d="M1932,1096L2025,1250L1996,1098Z" fill="#3883c7" stroke="#3883c7" fill-opacity="1" stroke-opacity="1"/><path d="M1996,1098L2025,1250L2120,1240Z" fill="#2873bf" stroke="#2873bf" fill-opacity="1" stroke-opacity="1"/><path d="M1996,1098L2120,1240L2232,1136Z" fill="#2a75bf" stroke="#2a75bf" fill-opacity="1" stroke-opacity="1"/><path d="M2232,1136L2120,1240L2322,1310Z" fill="#105cb2" stroke="#105cb2" fill-opacity="1" stroke-opacity="1"/><path d="M2232,1136L2322,1310L2323,1115Z" fill="#125fb4" stroke="#125fb4" fill-opacity="1" stroke-opacity="1"/><path d="M2323,1115L2322,1310L2423,1099Z" fill="#0f5bb2" stroke="#0f5bb2" fill-opacity="1" stroke-opacity="1"/><path d="M2423,1099L2322,1310L2496,1289Z" fill="#014aa9" stroke="#014aa9" fill-opacity="1" stroke-opacity="1"/><path d="M2423,1099L2496,1289L2610,1082Z" fill="#1251ad" stroke="#1251ad" fill-opacity="1" stroke-opacity="1"/><path d="M2610,1082L2496,1289L2665,1273Z" fill="#053da2" stroke="#053da2" fill-opacity="1" stroke-opacity="1"/><path d="M2610,1082L2665,1273L2742,1134Z" fill="#1141a4" stroke="#1141a4" fill-opacity="1" stroke-opacity="1"/><path d="M2742,1134L2665,1273L2717,1261Z" fill="#03319c" stroke="#03319c" fill-opacity="1" stroke-opacity="1"/><path d="M2742,1134L2717,1261L2772,1477Z" fill="#002093" stroke="#002093" fill-opacity="1" stroke-opacity="1"/><path d="M-61,1232L-113,1376L61,1382Z" fill="#561d65" stroke="#561d65" fill-opacity="1" stroke-opacity="1"/><path d="M-61,1232L61,1382L54,1230Z" fill="#5b306f" stroke="#5b306f" fill-opacity="1" stroke-opacity="1"/><path d="M54,1230L61,1382L271,1260Z" fill="#643f76" stroke="#643f76" fill-opacity="1" stroke-opacity="1"/><path d="M271,1260L61,1382L192,1421Z" fill="#683973" stroke="#683973" fill-opacity="1" stroke-opacity="1"/><path d="M271,1260L192,1421L425,1400Z" fill="#724b7c" stroke="#724b7c" fill-opacity="1" stroke-opacity="1"/><path d="M271,1260L425,1400L348,1244Z" fill="#765f85" stroke="#765f85" fill-opacity="1" stroke-opacity="1"/><path d="M348,1244L425,1400L493,1285Z" fill="#79668e" stroke="#79668e" fill-opacity="1" stroke-opacity="1"/><path d="M493,1285L425,1400L479,1408Z" fill="#7a608e" stroke="#7a608e" fill-opacity="1" stroke-opacity="1"/><path d="M493,1285L479,1408L699,1465Z" fill="#7b6598" stroke="#7b6598" fill-opacity="1" stroke-opacity="1"/><path d="M493,1285L699,1465L726,1216Z" fill="#7d7cab" stroke="#7d7cab" fill-opacity="1" stroke-opacity="1"/><path d="M726,1216L699,1465L860,1447Z" fill="#7f7cb3" stroke="#7f7cb3" fill-opacity="1" stroke-opacity="1"/><path d="M726,1216L860,1447L856,1228Z" fill="#7e8ebf" stroke="#7e8ebf" fill-opacity="1" stroke-opacity="1"/><path d="M856,1228L860,1447L987,1395Z" fill="#7d85be" stroke="#7d85be" fill-opacity="1" stroke-opacity="1"/><path d="M856,1228L987,1395L1020,1304Z" fill="#7d91c7" stroke="#7d91c7" fill-opacity="1" stroke-opacity="1"/><path d="M1020,1304L987,1395L1075,1371Z" fill="#7c8ac7" stroke="#7c8ac7" fill-opacity="1" stroke-opacity="1"/><path d="M1020,1304L1075,1371L1104,1250Z" fill="#7c96cf" stroke="#7c96cf" fill-opacity="1" stroke-opacity="1"/><path d="M1104,1250L1075,1371L1320,1387Z" fill="#7890cd" stroke="#7890cd" fill-opacity="1" stroke-opacity="1"/><path d="M1104,1250L1320,1387L1297,1222Z" fill="#7498d2" stroke="#7498d2" fill-opacity="1" stroke-opacity="1"/><path d="M1297,1222L1320,1387L1408,1271Z" fill="#6f94d0" stroke="#6f94d0" fill-opacity="1" stroke-opacity="1"/><path d="M1408,1271L1320,1387L1478,1445Z" fill="#6c83c7" stroke="#6c83c7" fill-opacity="1" stroke-opacity="1"/><path d="M1408,1271L1478,1445L1570,1227Z" fill="#658bcc" stroke="#658bcc" fill-opacity="1" stroke-opacity="1"/><path d="M1570,1227L1478,1445L1552,1450Z" fill="#5f7ac3" stroke="#5f7ac3" fill-opacity="1" stroke-opacity="1"/><path d="M1570,1227L1552,1450L1668,1277Z" fill="#5581c6" stroke="#5581c6" fill-opacity="1" stroke-opacity="1"/><path d="M1668,1277L1552,1450L1777,1394Z" fill="#4b70bd" stroke="#4b70bd" fill-opacity="1" stroke-opacity="1"/><path d="M1668,1277L1777,1394L1887,1275Z" fill="#3b72be" stroke="#3b72be" fill-opacity="1" stroke-opacity="1"/><path d="M1887,1275L1777,1394L1825,1433Z" fill="#3464b6" stroke="#3464b6" fill-opacity="1" stroke-opacity="1"/><path d="M1887,1275L1825,1433L1978,1444Z" fill="#2d5ab1" stroke="#2d5ab1" fill-opacity="1" stroke-opacity="1"/><path d="M1887,1275L1978,1444L2025,1250Z" fill="#2760b5" stroke="#2760b5" fill-opacity="1" stroke-opacity="1"/><path d="M2025,1250L1978,1444L2120,1240Z" fill="#1f5cb2" stroke="#1f5cb2" fill-opacity="1" stroke-opacity="1"/><path d="M2120,1240L1978,1444L2231,1472Z" fill="#1946a7" stroke="#1946a7" fill-opacity="1" stroke-opacity="1"/><path d="M2120,1240L2231,1472L2322,1310Z" fill="#0e45a6" stroke="#0e45a6" fill-opacity="1" stroke-opacity="1"/><path d="M2322,1310L2231,1472L2269,1463Z" fill="#09319c" stroke="#09319c" fill-opacity="1" stroke-opacity="1"/><path d="M2322,1310L2269,1463L2509,1369Z" fill="#002f9b" stroke="#002f9b" fill-opacity="1" stroke-opacity="1"/><path d="M2322,1310L2509,1369L2496,1289Z" fill="#00359e" stroke="#00359e" fill-opacity="1" stroke-opacity="1"/><path d="M2496,1289L2509,1369L2640,1370Z" fill="#002796" stroke="#002796" fill-opacity="1" stroke-opacity="1"/><path d="M2496,1289L2640,1370L2665,1273Z" fill="#002997" stroke="#002997" fill-opacity="1" stroke-opacity="1"/><path d="M2665,1273L2640,1370L2717,1261Z" fill="#002495" stroke="#002495" fill-opacity="1" stroke-opacity="1"/><path d="M2717,1261L2640,1370L2772,1477Z" fill="#00138c" stroke="#00138c" fill-opacity="1" stroke-opacity="1"/><path d="M-113,1376L192,1421L61,1382Z" fill="#5d1d65" stroke="#5d1d65" fill-opacity="1" stroke-opacity="1"/><path d="M192,1421L699,1465L479,1408Z" fill="#795185" stroke="#795185" fill-opacity="1" stroke-opacity="1"/><path d="M192,1421L479,1408L425,1400Z" fill="#784b7b" stroke="#784b7b" fill-opacity="1" stroke-opacity="1"/><path d="M699,1465L2772,1477L2231,1472Z" fill="#2d4ea7" stroke="#2d4ea7" fill-opacity="1" stroke-opacity="1"/><path d="M699,1465L2231,1472L1552,1450Z" fill="#6470bb" stroke="#6470bb" fill-opacity="1" stroke-opacity="1"/><path d="M699,1465L1552,1450L1478,1445Z" fill="#7478bf" stroke="#7478bf" fill-opacity="1" stroke-opacity="1"/><path d="M699,1465L1478,1445L860,1447Z" fill="#7c79bb" stroke="#7c79bb" fill-opacity="1" stroke-opacity="1"/><path d="M860,1447L1478,1445L1320,1387Z" fill="#757bc3" stroke="#757bc3" fill-opacity="1" stroke-opacity="1"/><path d="M860,1447L1320,1387L987,1395Z" fill="#7c80c3" stroke="#7c80c3" fill-opacity="1" stroke-opacity="1"/><path d="M987,1395L1320,1387L1075,1371Z" fill="#7a86c8" stroke="#7a86c8" fill-opacity="1" stroke-opacity="1"/><path d="M1552,1450L2231,1472L1978,1444Z" fill="#2b4ca8" stroke="#2b4ca8" fill-opacity="1" stroke-opacity="1"/><path d="M1552,1450L1978,1444L1825,1433Z" fill="#3a58b0" stroke="#3a58b0" fill-opacity="1" stroke-opacity="1"/><path d="M1552,1450L1825,1433L1777,1394Z" fill="#4460b5" stroke="#4460b5" fill-opacity="1" stroke-opacity="1"/><path d="M2231,1472L2772,1477L2269,1463Z" fill="#001e8e" stroke="#001e8e" fill-opacity="1" stroke-opacity="1"/><path d="M2269,1463L2772,1477L2509,1369Z" fill="#00168e" stroke="#00168e" fill-opacity="1" stroke-opacity="1"/><path d="M2509,1369L2772,1477L2640,1370Z" fill="#00118b" stroke="#00118b" fill-opacity="1" stroke-opacity="1"/></g></svg>